<?xml version="1.0" encoding="utf-8"?>
<!-- Generator: Adobe Illustrator 17.0.0, SVG Export Plug-In . SVG Version: 6.00 Build 0)  -->
<!DOCTYPE svg PUBLIC "-//W3C//DTD SVG 1.1//EN" "http://www.w3.org/Graphics/SVG/1.1/DTD/svg11.dtd">
<svg version="1.1" id="Layer_1" xmlns="http://www.w3.org/2000/svg" xmlns:xlink="http://www.w3.org/1999/xlink" x="0px" y="0px"
	 width="527.309px" height="56.473px" viewBox="0 0 527.309 56.473" enable-background="new 0 0 527.309 56.473"
	 xml:space="preserve">
<g>
	<path fill="#FCFCFC" d="M3.024,38.665c0.832,1.44,1.912,2.513,3.24,3.216c1.328,0.704,2.839,1.056,4.536,1.056
		c1.056,0,2.047-0.16,2.976-0.48c0.928-0.319,1.736-0.768,2.424-1.344c0.688-0.576,1.231-1.272,1.632-2.088
		c0.4-0.816,0.6-1.735,0.6-2.76c0-1.184-0.249-2.16-0.744-2.928c-0.497-0.768-1.16-1.399-1.992-1.896
		c-0.833-0.496-1.769-0.919-2.808-1.272c-1.041-0.352-2.112-0.703-3.216-1.056c-1.104-0.352-2.176-0.751-3.216-1.2
		c-1.04-0.448-1.976-1.032-2.808-1.752c-0.833-0.72-1.496-1.624-1.992-2.712c-0.497-1.087-0.744-2.432-0.744-4.032
		c0-1.503,0.295-2.839,0.888-4.008c0.591-1.168,1.392-2.144,2.4-2.928c1.008-0.784,2.167-1.375,3.48-1.776
		c1.312-0.4,2.688-0.6,4.128-0.6c1.855,0,3.576,0.329,5.16,0.984c1.584,0.656,2.952,1.752,4.104,3.288l-2.736,1.968
		c-0.8-1.12-1.736-1.96-2.808-2.52c-1.072-0.56-2.344-0.84-3.816-0.84c-1.024,0-2,0.136-2.928,0.408
		c-0.929,0.272-1.736,0.672-2.424,1.2c-0.688,0.528-1.24,1.192-1.656,1.992c-0.417,0.8-0.624,1.745-0.624,2.832
		c0,1.697,0.432,3,1.296,3.912c0.864,0.912,1.944,1.632,3.24,2.16c1.296,0.528,2.704,0.992,4.224,1.392
		c1.52,0.4,2.928,0.936,4.224,1.608c1.296,0.672,2.376,1.608,3.24,2.808c0.864,1.2,1.296,2.856,1.296,4.968
		c0,1.536-0.288,2.896-0.864,4.08c-0.576,1.184-1.352,2.184-2.328,3c-0.977,0.816-2.104,1.433-3.384,1.848
		c-1.28,0.415-2.608,0.624-3.984,0.624c-2.24,0-4.304-0.392-6.192-1.176C2.959,43.857,1.344,42.537,0,40.681L3.024,38.665z"/>
	<path fill="#FCFCFC" d="M42.96,35.641c0,1.088,0.008,2.064,0.024,2.928c0.016,0.864,0.04,1.664,0.072,2.4
		c0.032,0.736,0.072,1.424,0.12,2.064c0.048,0.641,0.12,1.28,0.216,1.92h-2.688c-0.192-1.087-0.288-2.288-0.288-3.6H40.32
		c-0.833,1.44-1.865,2.496-3.096,3.168c-1.232,0.672-2.792,1.008-4.68,1.008c-0.96,0-1.904-0.12-2.832-0.36
		c-0.929-0.24-1.76-0.624-2.496-1.152c-0.737-0.528-1.336-1.208-1.8-2.04c-0.464-0.832-0.696-1.84-0.696-3.024
		c0-1.696,0.432-3.04,1.296-4.032c0.864-0.991,1.928-1.735,3.192-2.232c1.264-0.496,2.608-0.816,4.032-0.96
		c1.423-0.144,2.68-0.216,3.768-0.216h3.36v-1.344c0-1.92-0.592-3.295-1.776-4.128c-1.185-0.832-2.672-1.248-4.464-1.248
		c-2.561,0-4.817,0.833-6.768,2.496l-1.68-1.968c1.056-1.024,2.368-1.8,3.936-2.328c1.567-0.528,3.072-0.792,4.512-0.792
		c2.688,0,4.831,0.632,6.432,1.896c1.6,1.265,2.4,3.305,2.4,6.12V35.641z M37.2,33.817c-1.216,0-2.393,0.081-3.528,0.24
		c-1.136,0.161-2.16,0.432-3.072,0.816c-0.912,0.384-1.64,0.896-2.184,1.536c-0.544,0.641-0.816,1.44-0.816,2.4
		c0,0.672,0.151,1.272,0.456,1.8c0.304,0.528,0.696,0.96,1.176,1.296c0.48,0.336,1.015,0.592,1.608,0.768
		c0.592,0.176,1.191,0.264,1.8,0.264c1.536,0,2.8-0.223,3.792-0.672c0.992-0.448,1.784-1.032,2.376-1.752
		c0.592-0.72,1-1.536,1.224-2.448c0.224-0.912,0.336-1.832,0.336-2.76v-1.488H37.2z"/>
	<path fill="#FCFCFC" d="M48.864,8.665h2.88v36.288h-2.88V8.665z"/>
	<path fill="#FCFCFC" d="M58.175,8.665h2.88v36.288h-2.88V8.665z"/>
	<path fill="#FCFCFC" d="M73.199,51.817c-0.544,1.44-1.296,2.576-2.256,3.408c-0.96,0.832-2.24,1.248-3.84,1.248
		c-0.48,0-0.96-0.041-1.44-0.12c-0.48-0.08-0.944-0.185-1.392-0.312l0.288-2.688c0.416,0.127,0.84,0.248,1.272,0.36
		c0.432,0.112,0.872,0.168,1.32,0.168c0.511,0,0.967-0.113,1.368-0.336c0.4-0.224,0.744-0.512,1.032-0.864
		c0.288-0.353,0.535-0.744,0.744-1.176c0.208-0.432,0.392-0.872,0.552-1.32l2.016-5.136l-9.024-22.272h3.216l7.344,18.672
		l7.152-18.672h3.072L73.199,51.817z"/>
	<path fill="#FCFCFC" d="M89.087,10.969h3.504l-3.696,10.944h-2.832L89.087,10.969z"/>
	<path fill="#FCFCFC" d="M91.87,39.289c0.607,1.184,1.503,2.088,2.688,2.712c1.183,0.624,2.431,0.936,3.744,0.936
		c0.608,0,1.216-0.096,1.824-0.288c0.607-0.192,1.152-0.463,1.632-0.816c0.48-0.352,0.872-0.775,1.176-1.272
		c0.304-0.496,0.456-1.063,0.456-1.704c0-1.023-0.329-1.792-0.984-2.304c-0.656-0.512-1.464-0.912-2.424-1.2
		s-2.016-0.536-3.168-0.744c-1.152-0.208-2.208-0.528-3.168-0.96c-0.96-0.432-1.769-1.032-2.424-1.8
		c-0.656-0.768-0.984-1.855-0.984-3.264c0-1.087,0.224-2.032,0.672-2.832c0.448-0.799,1.032-1.464,1.752-1.992
		c0.72-0.528,1.527-0.919,2.424-1.176c0.896-0.255,1.808-0.384,2.736-0.384c1.824,0,3.4,0.336,4.728,1.008
		c1.328,0.672,2.36,1.728,3.096,3.168l-2.592,1.536c-0.544-1.024-1.224-1.8-2.04-2.328c-0.816-0.528-1.88-0.792-3.192-0.792
		c-0.512,0-1.048,0.081-1.608,0.24c-0.56,0.161-1.064,0.384-1.512,0.672c-0.449,0.288-0.825,0.656-1.128,1.104
		c-0.304,0.449-0.456,0.96-0.456,1.536c0,0.992,0.328,1.728,0.984,2.208c0.655,0.48,1.464,0.856,2.424,1.128
		c0.96,0.272,2.016,0.504,3.168,0.696c1.152,0.192,2.208,0.504,3.168,0.936c0.96,0.432,1.768,1.056,2.424,1.872
		c0.655,0.816,0.984,1.976,0.984,3.48c0,1.152-0.216,2.152-0.648,3c-0.432,0.848-1.024,1.56-1.776,2.136
		c-0.752,0.576-1.608,1.008-2.568,1.296s-1.968,0.432-3.024,0.432c-1.92,0-3.672-0.369-5.256-1.104
		c-1.584-0.736-2.808-1.872-3.672-3.408L91.87,39.289z"/>
	<path fill="#FCFCFC" d="M121.054,10.969h9.792c1.279,0,2.575,0.104,3.888,0.312c1.312,0.208,2.488,0.64,3.528,1.296
		c1.04,0.656,1.888,1.568,2.544,2.736c0.655,1.168,0.984,2.712,0.984,4.632c0,1.728-0.512,3.232-1.536,4.512
		c-1.024,1.28-2.544,2.128-4.56,2.544v0.096c1.12,0.096,2.144,0.36,3.072,0.792c0.928,0.432,1.728,1.008,2.4,1.728
		c0.672,0.72,1.192,1.577,1.56,2.568c0.367,0.992,0.552,2.081,0.552,3.264c0,1.952-0.376,3.544-1.128,4.776
		c-0.752,1.232-1.696,2.201-2.832,2.904c-1.136,0.705-2.369,1.185-3.696,1.44c-1.329,0.256-2.568,0.384-3.72,0.384h-10.848V10.969z
		 M124.222,25.657h6.576c1.632,0,2.959-0.2,3.984-0.6c1.024-0.4,1.824-0.888,2.4-1.464c0.576-0.576,0.96-1.192,1.152-1.848
		c0.192-0.655,0.288-1.255,0.288-1.8c0-1.184-0.2-2.167-0.6-2.952c-0.4-0.784-0.936-1.408-1.608-1.872
		c-0.672-0.463-1.457-0.792-2.352-0.984c-0.896-0.192-1.84-0.288-2.832-0.288h-7.008V25.657z M124.222,42.073h7.248
		c1.856,0,3.352-0.224,4.488-0.672c1.135-0.448,2.008-1.008,2.616-1.68s1.016-1.384,1.224-2.136c0.208-0.751,0.312-1.432,0.312-2.04
		c0-1.248-0.24-2.319-0.72-3.216c-0.48-0.896-1.104-1.624-1.872-2.184c-0.768-0.56-1.64-0.967-2.616-1.224
		c-0.977-0.255-1.96-0.384-2.952-0.384h-7.728V42.073z"/>
	<path fill="#FCFCFC" d="M165.453,35.641c0,1.088,0.008,2.064,0.024,2.928c0.016,0.864,0.04,1.664,0.072,2.4
		c0.032,0.736,0.072,1.424,0.12,2.064c0.048,0.641,0.12,1.28,0.216,1.92h-2.688c-0.192-1.087-0.288-2.288-0.288-3.6h-0.096
		c-0.833,1.44-1.865,2.496-3.096,3.168c-1.232,0.672-2.792,1.008-4.68,1.008c-0.96,0-1.904-0.12-2.832-0.36
		c-0.929-0.24-1.76-0.624-2.496-1.152c-0.737-0.528-1.336-1.208-1.8-2.04c-0.464-0.832-0.696-1.84-0.696-3.024
		c0-1.696,0.432-3.04,1.296-4.032c0.864-0.991,1.928-1.735,3.192-2.232c1.264-0.496,2.608-0.816,4.032-0.96
		c1.423-0.144,2.68-0.216,3.768-0.216h3.36v-1.344c0-1.92-0.592-3.295-1.776-4.128c-1.185-0.832-2.672-1.248-4.464-1.248
		c-2.561,0-4.817,0.833-6.768,2.496l-1.68-1.968c1.056-1.024,2.368-1.8,3.936-2.328c1.567-0.528,3.072-0.792,4.512-0.792
		c2.688,0,4.831,0.632,6.432,1.896c1.6,1.265,2.4,3.305,2.4,6.12V35.641z M159.693,33.817c-1.216,0-2.393,0.081-3.528,0.24
		c-1.136,0.161-2.16,0.432-3.072,0.816c-0.912,0.384-1.64,0.896-2.184,1.536c-0.544,0.641-0.816,1.44-0.816,2.4
		c0,0.672,0.151,1.272,0.456,1.8c0.304,0.528,0.696,0.96,1.176,1.296c0.48,0.336,1.015,0.592,1.608,0.768
		c0.592,0.176,1.191,0.264,1.8,0.264c1.536,0,2.8-0.223,3.792-0.672c0.992-0.448,1.784-1.032,2.376-1.752
		c0.592-0.72,1-1.536,1.224-2.448c0.224-0.912,0.336-1.832,0.336-2.76v-1.488H159.693z"/>
	<path fill="#FCFCFC" d="M170.877,8.665h2.88v24.192l10.944-10.032h4.224l-11.424,10.128l12.768,12h-4.368l-12.144-11.712v11.712
		h-2.88V8.665z"/>
	<path fill="#FCFCFC" d="M191.469,13.993c0-0.607,0.208-1.12,0.624-1.536c0.416-0.416,0.928-0.624,1.536-0.624
		s1.12,0.208,1.536,0.624c0.416,0.417,0.624,0.929,0.624,1.536c0,0.608-0.208,1.121-0.624,1.536
		c-0.416,0.416-0.928,0.624-1.536,0.624s-1.12-0.208-1.536-0.624C191.677,15.114,191.469,14.601,191.469,13.993z M192.189,22.777
		h2.88v22.176h-2.88V22.777z"/>
	<path fill="#FCFCFC" d="M200.973,29.017c0-0.416-0.016-0.919-0.048-1.512c-0.032-0.591-0.056-1.191-0.072-1.8
		c-0.017-0.607-0.041-1.176-0.072-1.704c-0.032-0.528-0.048-0.936-0.048-1.224h2.88c0.032,0.833,0.056,1.632,0.072,2.4
		s0.056,1.264,0.12,1.488h0.144c0.576-1.216,1.536-2.263,2.88-3.144c1.344-0.879,2.912-1.32,4.704-1.32
		c1.728,0,3.136,0.272,4.224,0.816c1.087,0.544,1.944,1.256,2.568,2.136c0.624,0.88,1.056,1.896,1.296,3.048
		c0.24,1.152,0.36,2.336,0.36,3.552v13.2h-2.88V31.897c0-0.896-0.08-1.768-0.24-2.616c-0.161-0.848-0.44-1.608-0.84-2.28
		c-0.401-0.672-0.96-1.208-1.68-1.608c-0.72-0.4-1.656-0.6-2.808-0.6c-1.056,0-2.057,0.185-3,0.552
		c-0.944,0.368-1.76,0.928-2.448,1.68c-0.688,0.752-1.232,1.697-1.632,2.832c-0.4,1.136-0.6,2.472-0.6,4.008v11.088h-2.88V29.017z"
		/>
	<path fill="#FCFCFC" d="M247.676,43.513c0,2.751-0.4,4.976-1.2,6.672c-0.8,1.696-1.8,3.007-3,3.936
		c-1.2,0.928-2.489,1.552-3.864,1.872c-1.376,0.319-2.624,0.48-3.744,0.48c-1.121,0-2.216-0.104-3.288-0.312
		c-1.073-0.208-2.088-0.512-3.048-0.912c-0.96-0.4-1.832-0.888-2.616-1.464c-0.785-0.576-1.464-1.232-2.04-1.968l2.256-2.112
		c1.024,1.44,2.304,2.496,3.84,3.168c1.536,0.672,3.168,1.008,4.896,1.008c1.471,0,2.712-0.192,3.72-0.576
		c1.008-0.384,1.84-0.888,2.496-1.512c0.655-0.624,1.168-1.312,1.536-2.064c0.367-0.752,0.64-1.504,0.816-2.256
		c0.175-0.752,0.28-1.464,0.312-2.136c0.031-0.672,0.048-1.215,0.048-1.632v-3.072H244.7c-0.833,1.344-1.961,2.4-3.384,3.168
		c-1.424,0.768-3.096,1.152-5.016,1.152c-1.632,0-3.168-0.295-4.608-0.888c-1.44-0.592-2.696-1.408-3.768-2.448
		c-1.072-1.04-1.92-2.248-2.544-3.624c-0.624-1.375-0.936-2.848-0.936-4.416c0-1.567,0.312-3.04,0.936-4.416
		c0.624-1.375,1.472-2.576,2.544-3.6c1.072-1.023,2.328-1.84,3.768-2.448c1.44-0.607,2.976-0.912,4.608-0.912
		c1.92,0,3.592,0.384,5.016,1.152c1.423,0.768,2.552,1.824,3.384,3.168h0.096v-3.744h2.88V43.513z M244.892,33.577
		c0-1.216-0.232-2.359-0.696-3.432c-0.464-1.072-1.088-2-1.872-2.784s-1.712-1.408-2.784-1.872
		c-1.073-0.464-2.216-0.696-3.432-0.696c-1.216,0-2.36,0.232-3.432,0.696c-1.072,0.464-2,1.088-2.784,1.872
		c-0.785,0.784-1.409,1.712-1.872,2.784c-0.464,1.073-0.696,2.216-0.696,3.432c0,1.216,0.232,2.36,0.696,3.432
		c0.463,1.072,1.087,2,1.872,2.784c0.784,0.785,1.711,1.409,2.784,1.872c1.072,0.464,2.216,0.696,3.432,0.696
		c1.216,0,2.359-0.232,3.432-0.696c1.072-0.463,2-1.087,2.784-1.872c0.784-0.784,1.408-1.711,1.872-2.784
		C244.66,35.937,244.892,34.793,244.892,33.577z"/>
	<path fill="#FCFCFC" d="M291.5,39.625c-1.632,2.208-3.521,3.792-5.664,4.752c-2.145,0.96-4.464,1.44-6.96,1.44
		c-2.592,0-4.968-0.44-7.128-1.32c-2.16-0.88-4.008-2.112-5.544-3.696c-1.536-1.584-2.736-3.472-3.6-5.664
		c-0.864-2.191-1.296-4.584-1.296-7.176c0-2.592,0.432-4.975,1.296-7.152c0.864-2.176,2.064-4.056,3.6-5.64
		c1.536-1.584,3.384-2.824,5.544-3.72c2.16-0.896,4.536-1.344,7.128-1.344c2.304,0,4.456,0.408,6.456,1.224
		c2,0.816,3.751,2.184,5.256,4.104l-2.592,2.16c-1.056-1.6-2.409-2.768-4.056-3.504c-1.648-0.736-3.336-1.104-5.064-1.104
		c-2.208,0-4.2,0.384-5.976,1.152s-3.288,1.824-4.536,3.168c-1.248,1.344-2.208,2.928-2.88,4.752s-1.008,3.792-1.008,5.904
		c0,2.112,0.336,4.08,1.008,5.904c0.672,1.824,1.632,3.408,2.88,4.752c1.248,1.344,2.76,2.4,4.536,3.168s3.768,1.152,5.976,1.152
		c0.864,0,1.759-0.104,2.688-0.312c0.928-0.208,1.832-0.528,2.712-0.96c0.88-0.432,1.72-0.976,2.52-1.632
		c0.799-0.656,1.504-1.448,2.112-2.376L291.5,39.625z"/>
	<path fill="#FCFCFC" d="M292.987,33.865c0-1.696,0.288-3.256,0.864-4.68c0.576-1.423,1.375-2.656,2.4-3.696
		c1.024-1.04,2.256-1.848,3.696-2.424c1.44-0.576,3.008-0.864,4.704-0.864c1.696,0,3.256,0.288,4.68,0.864
		c1.423,0.576,2.656,1.385,3.696,2.424c1.04,1.04,1.848,2.272,2.424,3.696c0.576,1.424,0.864,2.984,0.864,4.68
		c0,1.696-0.288,3.256-0.864,4.68c-0.576,1.424-1.385,2.657-2.424,3.696c-1.04,1.04-2.272,1.848-3.696,2.424
		c-1.424,0.576-2.984,0.864-4.68,0.864c-1.696,0-3.264-0.288-4.704-0.864c-1.44-0.576-2.672-1.384-3.696-2.424
		c-1.024-1.04-1.824-2.272-2.4-3.696C293.275,37.121,292.987,35.561,292.987,33.865z M295.868,33.865c0,1.248,0.199,2.424,0.6,3.528
		c0.4,1.104,0.984,2.064,1.752,2.88c0.768,0.816,1.695,1.464,2.784,1.944c1.087,0.48,2.304,0.72,3.648,0.72
		c1.344,0,2.56-0.24,3.648-0.72s2.016-1.128,2.784-1.944c0.768-0.816,1.352-1.776,1.752-2.88c0.4-1.104,0.6-2.28,0.6-3.528
		s-0.2-2.424-0.6-3.528c-0.4-1.104-0.984-2.064-1.752-2.88s-1.696-1.464-2.784-1.944s-2.304-0.72-3.648-0.72
		c-1.344,0-2.561,0.24-3.648,0.72c-1.088,0.48-2.016,1.128-2.784,1.944c-0.768,0.816-1.353,1.776-1.752,2.88
		C296.067,31.441,295.868,32.617,295.868,33.865z"/>
	<path fill="#FCFCFC" d="M320.491,29.017c0-0.416-0.016-0.919-0.048-1.512c-0.032-0.591-0.056-1.191-0.072-1.8
		c-0.017-0.607-0.041-1.176-0.072-1.704c-0.032-0.528-0.048-0.936-0.048-1.224h2.88c0.032,0.833,0.056,1.632,0.072,2.4
		s0.056,1.264,0.12,1.488h0.144c0.576-1.216,1.536-2.263,2.88-3.144c1.344-0.879,2.912-1.32,4.705-1.32
		c1.471,0,2.814,0.376,4.031,1.128c1.215,0.752,2.096,1.976,2.641,3.672c0.703-1.664,1.752-2.88,3.143-3.648
		c1.393-0.768,2.857-1.152,4.393-1.152c1.729,0,3.137,0.272,4.225,0.816c1.088,0.544,1.943,1.256,2.568,2.136
		c0.623,0.88,1.055,1.896,1.295,3.048s0.359,2.336,0.359,3.552v13.2h-2.879V31.897c0-0.896-0.08-1.768-0.24-2.616
		c-0.16-0.848-0.439-1.608-0.84-2.28c-0.4-0.672-0.961-1.208-1.68-1.608c-0.721-0.4-1.656-0.6-2.809-0.6
		c-1.344,0-2.447,0.249-3.312,0.744c-0.863,0.497-1.543,1.128-2.039,1.896s-0.848,1.601-1.057,2.496
		c-0.209,0.896-0.312,1.745-0.312,2.544v12.48h-2.879V31.609c0-2.047-0.377-3.696-1.129-4.944s-1.912-1.872-3.479-1.872
		c-1.057,0-2.058,0.185-3.001,0.552c-0.944,0.368-1.76,0.928-2.448,1.68c-0.688,0.752-1.232,1.697-1.632,2.832
		c-0.4,1.136-0.6,2.472-0.6,4.008v11.088h-2.88V29.017z"/>
	<path fill="#FCFCFC" d="M358.506,22.777h2.88v3.888h0.097c0.447-0.768,1.008-1.432,1.68-1.992c0.672-0.56,1.399-1.024,2.184-1.392
		c0.784-0.368,1.608-0.64,2.473-0.816c0.863-0.176,1.711-0.264,2.544-0.264c1.695,0,3.256,0.288,4.68,0.864
		c1.424,0.576,2.656,1.385,3.696,2.424c1.039,1.04,1.848,2.272,2.424,3.696c0.576,1.424,0.864,2.984,0.864,4.68
		c0,1.696-0.288,3.256-0.864,4.68c-0.576,1.424-1.385,2.657-2.424,3.696c-1.04,1.04-2.272,1.848-3.696,2.424
		c-1.424,0.576-2.984,0.864-4.68,0.864c-0.833,0-1.681-0.089-2.544-0.264c-0.864-0.176-1.688-0.448-2.473-0.816
		c-0.784-0.368-1.512-0.832-2.184-1.392c-0.672-0.56-1.232-1.224-1.68-1.992h-0.097v14.832h-2.88V22.777z M361.098,33.865
		c0,1.248,0.24,2.424,0.721,3.528c0.479,1.104,1.135,2.064,1.968,2.88c0.832,0.816,1.808,1.464,2.928,1.944s2.336,0.72,3.648,0.72
		c1.344,0,2.56-0.24,3.647-0.72s2.017-1.128,2.784-1.944c0.769-0.816,1.352-1.776,1.752-2.88c0.399-1.104,0.601-2.28,0.601-3.528
		s-0.201-2.424-0.601-3.528c-0.4-1.104-0.983-2.064-1.752-2.88c-0.768-0.816-1.696-1.464-2.784-1.944s-2.304-0.72-3.647-0.72
		c-1.312,0-2.528,0.24-3.648,0.72s-2.096,1.128-2.928,1.944c-0.833,0.816-1.488,1.776-1.968,2.88
		C361.338,31.441,361.098,32.617,361.098,33.865z"/>
	<path fill="#FCFCFC" d="M403.435,35.641c0,1.088,0.007,2.064,0.023,2.928c0.016,0.864,0.04,1.664,0.072,2.4
		c0.031,0.736,0.072,1.424,0.12,2.064c0.048,0.641,0.12,1.28,0.216,1.92h-2.688c-0.192-1.087-0.288-2.288-0.288-3.6h-0.097
		c-0.832,1.44-1.864,2.496-3.096,3.168c-1.232,0.672-2.792,1.008-4.68,1.008c-0.96,0-1.904-0.12-2.832-0.36
		c-0.929-0.24-1.761-0.624-2.496-1.152c-0.736-0.528-1.337-1.208-1.8-2.04c-0.465-0.832-0.696-1.84-0.696-3.024
		c0-1.696,0.432-3.04,1.296-4.032c0.864-0.991,1.928-1.735,3.192-2.232c1.264-0.496,2.607-0.816,4.031-0.96s2.681-0.216,3.769-0.216
		h3.36v-1.344c0-1.92-0.593-3.295-1.776-4.128c-1.185-0.832-2.672-1.248-4.464-1.248c-2.561,0-4.816,0.833-6.769,2.496l-1.68-1.968
		c1.056-1.024,2.368-1.8,3.936-2.328c1.568-0.528,3.072-0.792,4.513-0.792c2.688,0,4.831,0.632,6.432,1.896
		c1.6,1.265,2.4,3.305,2.4,6.12V35.641z M397.674,33.817c-1.216,0-2.392,0.081-3.527,0.24c-1.137,0.161-2.16,0.432-3.072,0.816
		c-0.912,0.384-1.641,0.896-2.184,1.536c-0.545,0.641-0.816,1.44-0.816,2.4c0,0.672,0.151,1.272,0.456,1.8
		c0.304,0.528,0.696,0.96,1.176,1.296c0.48,0.336,1.016,0.592,1.608,0.768c0.592,0.176,1.191,0.264,1.8,0.264
		c1.536,0,2.8-0.223,3.792-0.672c0.991-0.448,1.783-1.032,2.376-1.752c0.592-0.72,1-1.536,1.224-2.448
		c0.224-0.912,0.337-1.832,0.337-2.76v-1.488H397.674z"/>
	<path fill="#FCFCFC" d="M408.859,29.017c0-0.416-0.017-0.919-0.048-1.512c-0.032-0.591-0.057-1.191-0.072-1.8
		c-0.017-0.607-0.04-1.176-0.071-1.704c-0.032-0.528-0.049-0.936-0.049-1.224h2.881c0.031,0.833,0.055,1.632,0.071,2.4
		c0.016,0.768,0.056,1.264,0.12,1.488h0.145c0.575-1.216,1.535-2.263,2.88-3.144c1.344-0.879,2.911-1.32,4.704-1.32
		c1.728,0,3.136,0.272,4.224,0.816c1.088,0.544,1.944,1.256,2.568,2.136c0.624,0.88,1.056,1.896,1.296,3.048
		c0.239,1.152,0.359,2.336,0.359,3.552v13.2h-2.88V31.897c0-0.896-0.08-1.768-0.24-2.616c-0.16-0.848-0.439-1.608-0.84-2.28
		c-0.4-0.672-0.96-1.208-1.68-1.608c-0.72-0.4-1.656-0.6-2.808-0.6c-1.057,0-2.057,0.185-3,0.552
		c-0.944,0.368-1.761,0.928-2.448,1.68c-0.688,0.752-1.232,1.697-1.632,2.832c-0.4,1.136-0.601,2.472-0.601,4.008v11.088h-2.88
		V29.017z"/>
	<path fill="#FCFCFC" d="M439.531,51.817c-0.545,1.44-1.296,2.576-2.256,3.408c-0.96,0.832-2.24,1.248-3.84,1.248
		c-0.48,0-0.96-0.041-1.44-0.12c-0.479-0.08-0.944-0.185-1.392-0.312l0.288-2.688c0.415,0.127,0.84,0.248,1.271,0.36
		c0.432,0.112,0.872,0.168,1.32,0.168c0.512,0,0.967-0.113,1.368-0.336c0.399-0.224,0.743-0.512,1.031-0.864
		c0.288-0.353,0.536-0.744,0.744-1.176c0.208-0.432,0.392-0.872,0.552-1.32l2.017-5.136l-9.024-22.272h3.216l7.345,18.672
		l7.151-18.672h3.072L439.531,51.817z"/>
</g>
<path fill="#EAB18B" stroke="#331D0D" stroke-miterlimit="10" d="M498.123,1.332c-0.634,0.205-10.667-4.667-13.333,7.333
	c0,0-12,4.667-7.333,13.333c0,0-10.155,9.333-1.078,15.333c0,0-2.911,12.333,9,13.333c0,0,5.411,10,15.411,0
	c0,0,12.667,6.667,16.667-2.667c0,0,12-3.333,8-14c0,0,4.667-12.667-3.333-16c0,0,4-9.333-8.667-9.333
	C513.456,8.665,510.268-2.597,498.123,1.332z"/>
<ellipse fill="#5B391D" cx="484.289" cy="40.915" rx="2" ry="2.083"/>
<ellipse fill="#5B391D" cx="506.873" cy="44.165" rx="1.083" ry="1.167"/>
<ellipse fill="#5B391D" cx="517.289" cy="30.402" rx="2.667" ry="2.597"/>
<ellipse fill="#5B391D" cx="485.789" cy="15.748" rx="1.5" ry="1.417"/>
<ellipse fill="#5B391D" cx="489.205" cy="31.873" rx="2.75" ry="2.542"/>
<ellipse fill="#5B391D" cx="511.539" cy="19.332" rx="1.25" ry="1"/>
<ellipse fill="#5B391D" cx="502.748" cy="8.665" rx="3.041" ry="2.833"/>
<ellipse fill="#5B391D" cx="497.373" cy="47.415" rx="1.083" ry="1.417"/>
<ellipse fill="#5B391D" cx="480.623" cy="27.748" rx="1.667" ry="1.583"/>
<ellipse fill="#5B391D" cx="519.539" cy="40.915" rx="2.25" ry="2.083"/>
<ellipse fill="#331D0D" cx="509.207" cy="20.533" rx="4.583" ry="4.784"/>
<circle fill="#FFFEFD" cx="510.373" cy="19.582" r="2.417"/>
<circle fill="#FFFEFD" cx="507.626" cy="22.995" r="1.087"/>
<ellipse fill="#331D0D" cx="491.873" cy="20.533" rx="4.583" ry="4.784"/>
<circle fill="#FFFEFD" cx="493.038" cy="19.582" r="2.417"/>
<circle fill="#FFFEFD" cx="490.292" cy="22.995" r="1.087"/>
<path fill="none" stroke="#331D0D" stroke-miterlimit="10" d="M493.99,32.998c0,0,0.375,5.583,6.875,5.583s6.542-5.583,6.542-5.583"
	/>
</svg>
